<svg width="156" height="87" viewBox="0 0 156 87" fill="none" xmlns="http://www.w3.org/2000/svg">
<g clip-path="url(#clip0_1412_5284)">
<path d="M90.8545 72.7142L121.905 64.306L151.908 56.7191L152.226 53.4283L153.13 50.8769L153.252 45.8263L152.441 40.2443C152.441 40.2443 151.804 37.7897 150.305 37.7236C148.806 37.6575 146.687 38.9742 146.687 38.9742L144.415 44.712L109.95 39.0626L102.879 38.3514L97.9349 45.3658L91.266 68.6901L90.8559 72.7149L90.8545 72.7142Z" fill="black"/>
<path fill-rule="evenodd" clip-rule="evenodd" d="M104.391 44.8561L95.5848 44.8773C89.3796 44.8922 84.3705 53.6491 84.3965 64.4351C84.4225 75.2211 89.4736 83.9544 95.6788 83.9395L104.485 83.9183C111.242 83.902 111.369 44.8393 104.391 44.8561V44.8561Z" fill="#0F0F0F"/>
<path fill-rule="evenodd" clip-rule="evenodd" d="M104.391 44.8558C108.778 44.8453 112.378 53.6111 112.404 64.3681C112.43 75.1251 108.872 83.9082 104.485 83.9188C100.097 83.9293 96.4965 75.1642 96.4706 64.4065C96.4447 53.6488 100.003 44.8664 104.391 44.8558Z" fill="#1A1A1A"/>
<path d="M104.47 78.0485C107.548 78.0411 110.028 71.9185 110.01 64.3733C109.991 56.8281 107.482 50.7175 104.404 50.7249C101.326 50.7323 98.8458 56.8549 98.864 64.4001C98.8822 71.9453 101.392 78.0559 104.47 78.0485Z" fill="white"/>
<path d="M104.465 76.1058C107.105 76.0994 109.232 70.8474 109.217 64.375C109.201 57.9026 107.048 52.6608 104.409 52.6672C101.769 52.6736 99.6414 57.9256 99.6569 64.398C99.6725 70.8704 101.825 76.1122 104.465 76.1058Z" fill="#989898"/>
<path fill-rule="evenodd" clip-rule="evenodd" d="M103.485 52.8896C101.29 53.9504 99.6432 58.7009 99.657 64.398C99.6707 70.0951 101.34 74.8376 103.54 75.8878C105.736 74.8271 107.382 70.0758 107.368 64.3795C107.354 58.6831 105.685 53.9398 103.485 52.8896Z" fill="#1A1A1A"/>
<path fill-rule="evenodd" clip-rule="evenodd" d="M103.507 52.8796C103.46 52.9018 103.413 52.9254 103.367 52.9511L103.165 54.2148L103.467 55.1481L102.609 60.5166L101.665 55.2132L101.905 54.416C101.436 55.1295 101.023 56.0362 100.682 57.0918L101.5 61.6921L99.963 60.1985C99.8214 61.119 99.7251 62.0961 99.6823 63.1109L101.059 64.4489L99.6981 65.8914C99.7533 66.9054 99.8606 67.8784 100.014 68.7934L101.543 67.1723L100.786 71.909C101.157 72.9877 101.606 73.9013 102.11 74.598L102.114 74.5683L101.811 73.6351L102.67 68.2672L103.614 73.5707L103.326 74.5254L103.568 75.875L104.467 75.8549L105.449 73.9038L105.442 73.8652L105.205 72.5328L104.722 72.3952L103.778 67.0917L105.972 69.2236L106.045 70.4011L106.596 70.9362L106.612 70.952L107.514 70.9498L107.694 65.7265L106.792 65.7287L106.413 66.4669L104.218 64.3356L106.377 62.0469L106.768 62.757L107.671 62.7548L107.407 57.5478L106.505 57.5499L105.947 58.1415L105.892 59.3234L103.734 61.6115L104.592 56.2429L105.072 56.0706L104.287 52.8253L103.505 52.8803L103.507 52.8796Z" fill="#666666"/>
<path fill-rule="evenodd" clip-rule="evenodd" d="M102.709 53.4371C102.05 54.0559 101.461 55.0237 100.981 56.2495L101.458 56.3857L102.402 61.6891L100.208 59.5572L100.175 59.0195C99.9565 60.0666 99.8014 61.2046 99.7202 62.4059L99.7673 62.3147L101.962 64.4452L99.8029 66.7339L99.7492 66.6367C99.848 67.8501 100.022 68.9969 100.261 70.0449L100.288 69.4574L102.446 67.1694L101.588 72.5372L101.108 72.7096L101.102 72.7434C101.601 73.9392 102.205 74.871 102.876 75.4472L103.017 74.5654L102.714 73.6314L103.573 68.2636L104.517 73.567L104.229 74.5217L104.467 75.8541L104.474 75.8928C104.805 75.7346 105.135 75.488 105.457 75.1462C105.78 74.8045 106.078 74.3847 106.352 73.9008L106.345 73.8622L106.108 72.5298L105.626 72.3922L104.682 67.0888L106.876 69.2207L106.949 70.3982L107.5 70.9332L107.516 70.9484C107.9 69.544 108.155 67.9481 108.264 66.2766L108.248 66.2615L107.697 65.7264L107.318 66.4646L105.124 64.3334L107.283 62.0446L107.673 62.7547L108.216 62.1798L108.231 62.1631C108.166 61.3494 108.063 60.5399 107.922 59.7478C107.781 58.9557 107.608 58.2209 107.41 57.5476L107.394 57.5643L106.852 58.1392L106.798 59.3211L104.639 61.6092L105.498 56.2407L105.978 56.0683L106.193 54.7203L106.199 54.681C105.625 53.7339 104.973 53.1003 104.29 52.8259L104.284 52.8652L104.068 54.2139L104.371 55.1479L103.513 60.5157L102.569 55.2123L102.856 54.2576L102.711 53.4392L102.709 53.4371Z" fill="white"/>
<path fill-rule="evenodd" clip-rule="evenodd" d="M102.847 59.2255C104.007 57.9954 105.36 59.3092 105.867 62.1596C106.374 65.0108 105.845 68.3193 104.685 69.5502C103.524 70.7803 102.172 69.4665 101.664 66.616C101.157 63.7649 101.686 60.4564 102.846 59.2255L102.847 59.2255Z" fill="white"/>
<path fill-rule="evenodd" clip-rule="evenodd" d="M103.225 61.3513C103.908 60.6276 104.703 61.4002 105.001 63.0776C105.3 64.7551 104.989 66.7004 104.306 67.4241C103.623 68.1478 102.828 67.3752 102.53 65.6978C102.231 64.0204 102.542 62.075 103.225 61.3506L103.225 61.3513Z" fill="#B2B2B2"/>
<path fill-rule="evenodd" clip-rule="evenodd" d="M28.007 36.1609L20.6996 36.1785C14.4944 36.1935 9.48535 44.9503 9.51131 55.7363C9.53728 66.5224 14.5884 75.2557 20.7936 75.2408L29.5994 75.2196C36.3564 75.2033 34.985 36.1441 28.0063 36.1609L28.007 36.1609Z" fill="#0F0F0F"/>
<path fill-rule="evenodd" clip-rule="evenodd" d="M29.5061 36.1571C33.894 36.1465 37.4934 44.9124 37.5193 55.6694C37.5452 66.4264 33.9873 75.2095 29.6001 75.22C25.2129 75.2306 21.612 66.4654 21.5861 55.7077C21.5602 44.95 25.1181 36.1677 29.5061 36.1571V36.1571Z" fill="#1A1A1A"/>
<path d="M29.5859 69.3507C32.6637 69.3433 35.144 63.2207 35.1259 55.6755C35.1077 48.1303 32.5979 42.0197 29.5202 42.0271C26.4424 42.0345 23.9621 48.1571 23.9802 55.7023C23.9984 63.2476 26.5081 69.3581 29.5859 69.3507Z" fill="white"/>
<path d="M29.5812 67.408C32.2211 67.4017 34.3485 62.1496 34.3329 55.6772C34.3173 49.2049 32.1647 43.9631 29.5248 43.9695C26.885 43.9758 24.7576 49.2279 24.7731 55.7003C24.7887 62.1726 26.9414 67.4144 29.5812 67.408Z" fill="#989898"/>
<path fill-rule="evenodd" clip-rule="evenodd" d="M28.6011 44.1919C26.4062 45.2527 24.7595 50.0032 24.7732 55.7003C24.7869 61.3973 26.4565 66.1399 28.6564 67.1901C30.852 66.1293 32.4981 61.3781 32.4844 55.6817C32.4706 49.9853 30.8011 45.2421 28.6011 44.1919Z" fill="#1A1A1A"/>
<path fill-rule="evenodd" clip-rule="evenodd" d="M28.6233 44.1819C28.5761 44.2041 28.5296 44.2277 28.4831 44.2533L28.2811 45.5171L28.5836 46.4503L27.725 51.8188L26.781 46.5154L27.0209 45.7182C26.5522 46.4317 26.1388 47.3384 25.798 48.394L26.6166 52.9943L25.0792 51.5008C24.9376 52.4213 24.8413 53.3983 24.7985 54.4132L26.175 55.7511L24.8143 57.1937C24.8695 58.2076 24.9768 59.1807 25.1305 60.0957L26.6597 58.4746L25.9025 63.2112C26.2734 64.29 26.7217 65.2036 27.2259 65.9003L27.2307 65.8706L26.9275 64.9373L27.7861 59.5695L28.7301 64.8729L28.4426 65.8276L28.6842 67.1773L29.5827 67.1572L30.5656 65.2061L30.5585 65.1674L30.3211 63.835L29.8385 63.6974L28.8945 58.394L31.088 60.5259L31.161 61.7034L31.712 62.2384L31.7281 62.2543L32.6301 62.2521L32.81 57.0288L31.908 57.031L31.5289 57.7691L29.3347 55.6379L31.4933 53.3492L31.8842 54.0592L32.7869 54.0571L32.5228 48.85L31.6207 48.8522L31.0627 49.4437L31.0086 50.6257L28.85 52.9137L29.7086 47.5452L30.1884 47.3729L29.4036 44.1275L28.6212 44.1826L28.6233 44.1819Z" fill="#666666"/>
<path fill-rule="evenodd" clip-rule="evenodd" d="M27.8254 44.7394C27.166 45.3581 26.5776 46.326 26.0976 47.5517L26.5746 47.6879L27.5186 52.9914L25.3244 50.8595L25.2911 50.3218C25.0727 51.3688 24.9176 52.5068 24.8365 53.7082L24.8835 53.6169L27.0777 55.7475L24.9191 58.0362L24.8654 57.939C24.9642 59.1523 25.1386 60.2992 25.3774 61.3472L25.4038 60.7597L27.5624 58.4716L26.7039 63.8395L26.2241 64.0118L26.2186 64.0456C26.717 65.2414 27.321 66.1733 27.9924 66.7495L28.1334 65.8676L27.8302 64.9336L28.6888 59.5658L29.6328 64.8693L29.3453 65.824L29.5827 67.1564L29.5898 67.195C29.9216 67.0368 30.2511 66.7903 30.5734 66.4485C30.8957 66.1067 31.1943 65.687 31.4683 65.2031L31.4613 65.1644L31.2245 63.832L30.7419 63.6944L29.7979 58.391L31.9921 60.5229L32.0652 61.7004L32.6162 62.2354L32.6322 62.2506C33.0159 60.8463 33.2713 59.2504 33.3798 57.5789L33.3638 57.5637L32.8128 57.0287L32.4338 57.7668L30.2402 55.6356L32.3988 53.3469L32.7897 54.0569L33.3318 53.482L33.3477 53.4654C33.2818 52.6517 33.1791 51.8422 33.0382 51.0501C32.8973 50.2579 32.7246 49.5232 32.5263 48.8499L32.5103 48.8665L31.9683 49.4415L31.9141 50.6234L29.7555 52.9114L30.6141 47.5429L31.0939 47.3706L31.3095 46.0226L31.3157 45.9832C30.7408 45.0361 30.0888 44.4026 29.4064 44.1281L29.4002 44.1675L29.1845 45.5162L29.4877 46.4501L28.6291 51.8179L27.6851 46.5145L27.9726 45.5598L27.8268 44.7414L27.8254 44.7394Z" fill="white"/>
<path fill-rule="evenodd" clip-rule="evenodd" d="M27.9631 50.5278C29.1235 49.2976 30.4762 50.6114 30.9835 53.4619C31.4907 56.313 30.9615 59.6216 29.8011 60.8524C28.6407 62.0826 27.2886 60.7687 26.7807 57.9183C26.2728 55.0672 26.8027 51.7586 27.9624 50.5278L27.9631 50.5278Z" fill="white"/>
<path fill-rule="evenodd" clip-rule="evenodd" d="M28.3413 52.6536C29.0241 51.9298 29.8196 52.7025 30.1176 54.3799C30.4163 56.0573 30.1048 58.0026 29.422 58.7264C28.7392 59.4501 27.9444 58.6774 27.6457 57C27.347 55.3226 27.6586 53.3773 28.3413 52.6529L28.3413 52.6536Z" fill="#B2B2B2"/>
<path fill-rule="evenodd" clip-rule="evenodd" d="M148.56 41.1218L143.027 41.1351C139.292 41.1441 136.28 47.2916 136.298 54.8663C136.316 62.441 139.359 68.574 143.093 68.565L148.626 68.5517C152.694 68.5419 152.76 41.1117 148.56 41.1218Z" fill="#0F0F0F"/>
<path fill-rule="evenodd" clip-rule="evenodd" d="M148.56 41.122C150.922 41.1163 152.864 47.2726 152.882 54.8266C152.9 62.3806 150.988 68.5462 148.626 68.5519C146.264 68.5576 144.322 62.4013 144.304 54.8473C144.286 47.2933 146.198 41.1277 148.56 41.122V41.122Z" fill="#1A1A1A"/>
<path d="M148.616 64.4305C150.273 64.4265 151.606 60.1279 151.594 54.8294C151.581 49.5309 150.227 45.2388 148.57 45.2428C146.913 45.2468 145.579 49.5453 145.592 54.8439C145.605 60.1424 146.959 64.4345 148.616 64.4305Z" fill="white"/>
<path d="M148.613 63.0658C150.034 63.0624 151.177 59.3753 151.166 54.8305C151.155 50.2857 149.994 46.6042 148.573 46.6076C147.152 46.611 146.009 50.2981 146.02 54.8429C146.03 59.3877 147.191 63.0692 148.613 63.0658Z" fill="#989898"/>
<path fill-rule="evenodd" clip-rule="evenodd" d="M148.076 46.7626C146.895 47.5068 146.01 50.8418 146.019 54.8421C146.029 58.8424 146.93 62.1737 148.115 62.9123C149.296 62.168 150.181 58.8331 150.171 54.8321C150.162 50.8311 149.26 47.5011 148.076 46.7626Z" fill="#1A1A1A"/>
<path fill-rule="evenodd" clip-rule="evenodd" d="M148.088 46.7557C148.062 46.771 148.037 46.7876 148.012 46.8056L147.904 47.6929L148.067 48.3483L147.607 52.1178L147.096 48.3934L147.226 47.8333C146.974 48.3337 146.751 48.9707 146.568 49.7118L147.011 52.9421L146.183 51.8927C146.106 52.5391 146.055 53.2247 146.033 53.9378L146.774 54.8776L146.042 55.89C146.072 56.6023 146.13 57.2849 146.214 57.928L147.037 56.7905L146.631 60.116C146.83 60.8742 147.072 61.5156 147.345 62.005L147.347 61.9843L147.184 61.3289L147.644 57.5601L148.155 61.2845L148 61.9544L148.13 62.9026L148.614 62.889L149.142 61.5196L149.139 61.4927L149.01 60.5569L148.751 60.4602L148.24 56.7358L149.423 58.2337L149.462 59.0606L149.759 59.4368L149.767 59.4478L150.253 59.4467L150.348 55.7788L149.862 55.78L149.658 56.2982L148.476 54.8003L149.638 53.1939L149.848 53.6932L150.334 53.6921L150.19 50.0351L149.704 50.0363L149.404 50.4519L149.375 51.2817L148.214 52.8874L148.674 49.1179L148.932 48.9972L148.508 46.7181L148.087 46.7564L148.088 46.7557Z" fill="#666666"/>
<path fill-rule="evenodd" clip-rule="evenodd" d="M147.658 47.1468C147.304 47.5812 146.987 48.2605 146.729 49.1213L146.987 49.2173L147.497 52.9417L146.315 51.4438L146.297 51.0662C146.18 51.801 146.096 52.6006 146.053 53.4435L146.078 53.3793L147.26 54.8765L146.099 56.4829L146.07 56.4146C146.123 57.2663 146.218 58.0717 146.347 58.8079L146.361 58.3958L147.523 56.7901L147.063 60.5589L146.804 60.6796L146.802 60.7031C147.07 61.5426 147.396 62.1976 147.758 62.6026L147.833 61.9832L147.67 61.3271L148.13 57.5583L148.64 61.2827L148.486 61.9526L148.614 62.8884L148.617 62.9153C148.796 62.8044 148.973 62.6314 149.146 62.3915C149.319 62.1515 149.481 61.8571 149.628 61.5178L149.624 61.4908L149.496 60.5551L149.235 60.4584L148.725 56.734L149.907 58.2319L149.946 59.0588L150.243 59.435L150.252 59.446C150.458 58.4605 150.595 57.3391 150.653 56.1654L150.644 56.1544L150.347 55.7782L150.143 56.2964L148.961 54.7992L150.123 53.1928L150.333 53.6921L150.625 53.2883L150.633 53.2765C150.597 52.705 150.541 52.1363 150.466 51.5801C150.389 51.0239 150.296 50.5078 150.189 50.0352L150.18 50.047L149.889 50.4508L149.86 51.2806L148.699 52.8863L149.159 49.1168L149.417 48.9961L149.532 48.0494L149.536 48.0218C149.225 47.3571 148.874 46.9113 148.507 46.7182L148.503 46.7458L148.387 47.6925L148.551 48.3486L148.091 52.1174L147.581 48.393L147.736 47.7224L147.657 47.1475L147.658 47.1468Z" fill="white"/>
<path fill-rule="evenodd" clip-rule="evenodd" d="M147.735 51.212C148.359 50.3483 149.088 51.2716 149.363 53.2735C149.637 55.2761 149.354 57.599 148.729 58.4627C148.105 59.3264 147.376 58.4031 147.102 56.4012C146.827 54.3986 147.111 52.0757 147.736 51.212L147.735 51.212Z" fill="white"/>
<path fill-rule="evenodd" clip-rule="evenodd" d="M147.939 52.7046C148.306 52.1971 148.735 52.74 148.896 53.9173C149.058 55.0952 148.891 56.4611 148.524 56.9693C148.157 57.4769 147.728 56.934 147.567 55.7567C147.405 54.5787 147.572 53.2129 147.939 52.7046Z" fill="#B2B2B2"/>
<path d="M43.7882 17.1265C43.7882 17.1265 41.5968 17.6412 40.5484 18.3389C39.5007 19.0365 38.5461 19.9887 38.5249 20.7073C38.503 21.426 39.5513 20.7049 39.5513 20.7049L43.7882 17.1265V17.1265Z" fill="black"/>
<path d="M12.0916 33.1555C12.0916 33.1555 10.8772 27.841 13.6973 26.6524C16.5166 25.4638 24.3123 22.445 36.5209 21.407C36.5209 21.407 39.3871 20.3053 41.1856 18.8589C42.9841 17.4126 57.3746 7.00327 62.7937 5.21751C68.2129 3.43175 84.2862 1.55132 86.8572 1.44089C89.429 1.33046 116.248 1.37014 120.974 2.14088C125.699 2.91162 135.679 6.01539 141.885 11.8391C144.095 13.9192 143.781 14.5453 144.045 15.0659C144.308 15.5864 146.84 20.7418 147.892 21.8341C148.944 22.9264 150.416 23.705 150.944 24.9028C151.471 26.1005 151.895 27.8722 151.951 29.0187C152.003 30.1079 152.591 37.0772 152.878 39.2903C152.908 39.5188 152.93 39.7479 152.944 39.9777L153.249 45.0721C152.76 38.1916 149.45 36.8963 149.45 36.8963L145.739 43.1615L142.991 57.1917L113.46 64.1445L114.278 55.4881L113.047 45.3249L108.358 38.0901L100.39 41.7582L96.2143 51.465L92.3681 67.2181L69.3863 69.6716C69.3863 69.6716 60.5975 59.7351 58.2336 59.0111C55.8704 58.2871 31.7756 56.5724 27.3663 56.3746C22.9571 56.1767 10.2013 55.1126 8.68749 58.7652C7.17433 62.4178 7.12503 63.8779 6.3201 63.8101C5.51518 63.7424 3.68885 60.862 3.79237 60.2715C3.89588 59.6803 5.2224 58.4608 5.2224 58.4608L6.24827 48.6919C6.24827 48.6919 4.03635 45.5694 4.06791 44.2488C4.09948 42.9281 4.97326 42.4394 5.5313 41.5689C6.08934 40.6985 6.92558 39.3414 7.30782 38.1932C7.69006 37.0457 7.89785 36.1761 8.59716 35.9659C9.29648 35.7558 12.0895 33.1542 12.0895 33.1542L12.0916 33.1555Z" fill="#D7F4F4"/>
<path d="M68.5657 54.1431C68.7859 54.1163 69.0069 54.0978 69.2285 54.089C69.945 54.0611 70.4731 54.0301 70.9236 53.8205C71.4477 53.5763 72.0058 52.7404 72.7377 51.6265C73.4696 50.5127 75.0393 48.4235 76.963 48.1407C78.8866 47.8578 83.1197 47.6046 84.3794 47.4974C85.6391 47.3901 86.025 48.0498 86.237 48.9177C86.4489 49.7863 87.0199 54.2685 87.0605 56.7355C87.1012 59.2033 87.0714 61.2384 86.934 62.2024C86.7966 63.1664 86.9031 63.7916 85.5731 63.8645C84.2431 63.9374 81.725 64.0822 80.36 64.051C78.995 64.0198 77.3162 64.1122 75.8419 62.2298C74.3675 60.3467 72.6115 57.5359 72.0505 57.1548C71.4894 56.7737 70.6498 56.706 69.6352 56.7437C68.6207 56.7813 67.2565 57.0966 66.4492 56.0217C65.6418 54.9467 65.5006 54.321 66.7251 54.2835C67.5319 54.2588 68.2016 54.1888 68.565 54.1445L68.5657 54.1431Z" fill="black"/>
<path d="M102.23 21.0871C102.627 21.3644 103.865 21.8481 102.489 22.0833C101.113 22.3186 97.2653 22.976 94.2116 23.818" stroke="#9AD7DC" stroke-width="0.5" stroke-miterlimit="10"/>
<path d="M25.5835 34.9059C26.1109 34.8887 27.6339 36.1994 28.5262 36.1973C29.4186 36.1951 39.6538 36.4314 40.4404 36.4295C41.2271 36.4276 42.8527 35.5719 44.1818 35.4299C45.5109 35.288 47.1204 35.2993 49.4999 35.2687C51.8793 35.2374 58.5283 35.639 59.8235 35.8444C61.1187 36.0498 61.8195 36.465 62.5214 37.3324C63.2233 38.1998 63.8553 39.171 63.822 39.7619C63.7886 40.3529 62.357 41.7812 60.9609 42.9663C59.5641 44.1515 57.0832 45.652 56.2094 45.8274C55.3349 46.0034 50.0866 46.0161 47.9524 46.0212C45.8182 46.0263 42.8092 46.1033 41.7939 45.8276C40.7786 45.5518 40.0067 44.7543 39.2018 44.6872C38.3968 44.6194 27.829 44.1934 27.0947 44.2994C26.3604 44.4054 25.1724 45.1731 24.438 45.2094C23.7035 45.2457 14.9553 44.9195 13.8347 44.5053C12.7141 44.091 10.5722 40.8987 10.5696 39.8211C10.567 38.7435 10.5316 38.4654 11.508 37.282C12.485 36.0978 13.1472 35.1926 15.2465 35.1178C17.3458 35.043 25.0074 34.9252 25.5849 34.9066L25.5835 34.9059Z" fill="#629495"/>
<path d="M121.241 55.1245C122.425 54.7295 135.543 51.7883 137.851 51.1573C140.159 50.5263 140.929 50.4893 141.347 49.6544C141.764 48.8195 142.112 47.6368 140.957 47.8136C139.803 47.9903 130.606 50.2366 129.487 50.5175C128.368 50.7984 121.306 52.9008 120.502 53.1803C119.698 53.4604 118.829 55.9296 121.241 55.1245V55.1245Z" fill="black"/>
<path d="M112.956 14.4113L113.624 23.2201C113.624 23.2201 127.696 21.8505 130.73 21.7189C133.764 21.5881 145.372 21.371 145.372 21.371C144.627 19.6063 143.094 17.3782 141.606 15.4448C132.107 13.8765 122.706 12.9582 113.652 12.512C113.224 13.6216 112.955 14.4113 112.955 14.4113L112.956 14.4113Z" fill="#606060"/>
<path d="M128.909 6.76159C121.976 4.48439 119.352 4.80342 117.64 5.50268C116.321 6.04084 114.598 10.0598 113.652 12.512C122.707 12.9582 132.107 13.8765 141.606 15.4448C140.46 13.9544 139.341 12.6393 138.631 11.8472C137 10.0266 135.842 9.0388 128.909 6.76159V6.76159Z" fill="black"/>
<path d="M4.1513 44.8285C4.34795 45.1056 4.49545 45.4649 5.99 46.2061C7.48455 46.948 8.46522 47.2701 8.41916 47.4787C8.3731 47.6873 8.23361 48.0583 6.92779 48.0615C6.92779 48.0615 6.90478 48.3162 6.99977 48.8027C7.09476 49.2891 7.05269 51.4437 7.05302 51.5831C7.05336 51.7226 7.07816 52.2085 6.91663 52.9502C6.7551 53.692 6.24931 56.636 6.15649 57.0532C6.06437 57.4704 5.57823 59.0475 5.34539 59.3256C5.11255 59.6043 4.41538 59.2609 4.41446 58.8784C4.41354 58.496 4.13448 51.4086 4.13385 51.1476C4.13322 50.8867 4.07886 50.2442 4.09517 49.5145C4.11148 48.7848 3.79915 44.331 4.1513 44.8278L4.1513 44.8285Z" fill="black"/>
<mask id="mask0_1412_5284" style="mask-type:alpha" maskUnits="userSpaceOnUse" x="7" y="55" width="56" height="14">
<path d="M15.5051 55.9324C18.5501 56.0845 29.8614 56.7359 34.205 56.8027C38.548 56.8703 54.1385 57.9793 55.2412 58.1852C56.3439 58.391 57.5517 58.649 59.4473 61.1468C61.3429 63.6446 62.1339 65.1545 62.1358 65.9366C62.1377 66.7187 61.4574 67.6067 58.3099 68.1872C55.1625 68.7685 50.9637 68.8303 44.2976 68.5337C37.6316 68.237 17.1285 66.6179 13.5209 66.0012C9.9133 65.3844 6.9189 64.2968 7.91013 61.7921C8.90136 59.2873 10.1015 56.3651 11.6229 56.153C13.1444 55.9408 15.5065 55.9324 15.5065 55.9324L15.5051 55.9324Z" fill="white"/>
</mask>
<g mask="url(#mask0_1412_5284)">
<path d="M28.7161 59.3711L35.907 59.7438L35.9195 64.9052L28.7284 64.4531L28.7161 59.3711Z" fill="#606060"/>
<path d="M19.3676 56.76C19.3676 56.76 18.4743 63.5741 18.7624 66.9096C19.0505 70.2452 7.00283 65.6864 7.00283 65.6864L9.35541 54.4895L17.7511 53.8867L19.3676 56.7593L19.3676 56.76Z" fill="#606060"/>
<path d="M8.28351 56.6851C26.334 58.562 44.5145 59.6034 62.7652 59.7942" stroke="#969696" stroke-width="5.33" stroke-miterlimit="10"/>
<path d="M8.03479 59.0361C26.1589 60.9212 44.4131 61.9666 62.7375 62.1579" stroke="#969696" stroke-width="5.33" stroke-miterlimit="10"/>
<path d="M7.78473 61.3872C25.9826 63.2797 44.3104 64.3297 62.7092 64.5222" stroke="#969696" stroke-width="5.33" stroke-miterlimit="10"/>
<path d="M7.53394 63.7383C25.8055 65.6389 44.207 66.6929 62.6794 66.8859" stroke="#969696" stroke-width="5.33" stroke-miterlimit="10"/>
</g>
<path d="M124.566 5.47705C125.319 7.23967 127.642 13.3329 128.013 14.5311C128.383 15.7293 129.758 21.7758 129.758 21.7758C129.758 21.7758 130.459 22.7019 130.848 23.5915C131.238 24.4811 133.183 25.3627 133.473 26.2484C133.763 27.134 134.508 31.3031 134.514 33.6487C134.519 35.9944 133.699 44.1814 133.755 45.7972C133.812 47.4131 134.34 48.9236 134.552 49.7052C134.764 50.4868 134.955 51.401 134.783 51.9088C134.612 52.4166 134.617 56.8304 134.617 56.8304C134.617 56.8304 134.689 58.828 134.869 59.297C135.049 59.766 134.874 61.2257 134.874 61.2257" stroke="#9AD7DC" stroke-width="0.5" stroke-miterlimit="10"/>
<path d="M111.825 24.4233C111.825 24.4233 113.279 27.7561 113.842 29.145C114.406 30.5339 114.692 33.427 114.765 34.6908C114.839 35.9546 115.207 43.9475 115.21 45.199C115.213 46.4505 115.204 60.236 115.251 61.9741C115.297 63.7122 114.996 66.6605 114.996 66.6605" stroke="#9AD7DC" stroke-width="0.5" stroke-miterlimit="10"/>
<path d="M134.562 8.87256C134.562 8.87256 135.807 10.7803 136.685 12.3266C137.187 13.2103 137.634 14.1695 137.751 14.4212C138.089 15.1445 138.9 16.8952 139.481 18.5009C140.05 20.0713 140.45 21.4696 140.45 21.4696C141.432 22.1624 144.565 22.723 145.567 25.1767C145.834 25.8291 147.007 27.5016 147.326 29.1348C147.645 30.768 148.139 32.7473 148.14 33.1297C148.141 33.5122 147.941 35.7058 147.941 35.7058C147.941 35.7058 148.42 37.4411 148.335 38.5506" stroke="#9AD7DC" stroke-width="0.5" stroke-miterlimit="10"/>
<path d="M67.3695 55.2538C67.3695 55.2538 67.8372 55.8091 68.1173 55.8084C68.3973 55.8078 84.5128 54.7031 85.1194 54.6782C85.7261 54.6533 85.8185 54.3521 85.818 54.1436C85.8175 53.9351 85.8631 53.5409 83.1347 53.8256C80.4063 54.1104 66.9989 54.8889 67.3695 55.2538V55.2538Z" fill="#9AD7DC"/>
<path d="M73.8105 56.4551C73.8105 56.4551 75.7763 59.2309 76.2334 60.0292C76.6905 60.8275 77.9892 62.7703 78.6546 62.9082C79.32 63.0453 80.9297 63.1112 81.3493 63.0757C81.769 63.0401 81.067 62.1382 79.6626 60.1604C78.2582 58.1826 77.309 56.2037 76.9241 56.2398C76.5392 56.276 73.5539 56.0919 73.8105 56.4558L73.8105 56.4551Z" fill="#9AD7DC"/>
<path d="M73.7876 53.5707C74.1177 53.5761 76.1475 53.4953 76.3919 53.4257C76.6364 53.3554 78.2393 50.6062 78.6582 49.9797C79.0765 49.3533 79.1805 48.9706 78.0267 49.1819C76.8729 49.3931 75.8239 49.8478 75.162 50.8918C74.5001 51.9357 73.1802 53.5604 73.7883 53.5714L73.7876 53.5707Z" fill="#9AD7DC"/>
<path d="M5.83781 46.7832C5.83781 46.7832 6.12683 50.5012 5.84651 50.3977C5.56619 50.2941 5.37378 50.0412 5.32373 48.5931C5.2752 47.1995 5.10171 46.4378 5.83781 46.7832Z" fill="#9AD7DC"/>
<path d="M5.75753 52.4132C5.86466 52.4585 5.9838 52.5825 6.06921 52.2647C6.15393 51.9491 5.27546 51.6433 5.04134 51.3885C4.80722 51.1343 4.44726 50.567 4.4698 50.4027C4.49303 50.2383 4.09655 50.3781 4.09716 50.6335C4.09777 50.8889 4.33351 51.8147 5.75753 52.4139L5.75753 52.4132Z" fill="#9AD7DC"/>
<path d="M5.50254 53.0223C5.50254 53.0223 5.35834 57.7844 5.29646 58.0621C5.23528 58.3404 4.61001 52.9375 5.50254 53.0223Z" fill="#9AD7DC"/>
<mask id="path-54-inside-1_1412_5284" fill="white">
<path d="M22.6585 28.6007C22.6585 28.6007 35.2444 24.3478 36.712 23.4054C38.1795 22.4638 37.5483 22.0932 35.8693 22.1007C35.8693 22.1007 37.4432 21.7352 38.1795 22.4638C38.9159 23.1916 31.5235 26.3379 22.6592 28.6007L22.6585 28.6007Z"/>
</mask>
<path d="M22.6585 28.6007C22.6585 28.6007 35.2444 24.3478 36.712 23.4054C38.1795 22.4638 37.5483 22.0932 35.8693 22.1007C35.8693 22.1007 37.4432 21.7352 38.1795 22.4638C38.9159 23.1916 31.5235 26.3379 22.6592 28.6007L22.6585 28.6007Z" fill="#F7F6F4"/>
<path d="M22.6585 28.6007L22.3384 27.6533L22.661 29.6007L22.6585 28.6007ZM36.712 23.4054L36.1719 22.5638L36.1716 22.564L36.712 23.4054ZM35.8693 22.1007L35.6431 21.1266L35.8738 23.1007L35.8693 22.1007ZM38.1795 22.4638L37.4762 23.1746L37.4765 23.1749L38.1795 22.4638ZM22.6592 28.6007L22.6616 29.6007L22.786 29.6004L22.9066 29.5696L22.6592 28.6007ZM22.6585 28.6007C22.9787 29.5481 22.9787 29.548 22.9789 29.548C22.979 29.548 22.9791 29.5479 22.9793 29.5479C22.9797 29.5477 22.9803 29.5475 22.9811 29.5473C22.9827 29.5467 22.985 29.5459 22.988 29.5449C22.9942 29.5428 23.0033 29.5397 23.0153 29.5357C23.0393 29.5275 23.0749 29.5155 23.1214 29.4997C23.2143 29.4682 23.3506 29.422 23.5245 29.3628C23.8723 29.2444 24.3706 29.0742 24.9731 28.8672C26.1778 28.4531 27.8002 27.8909 29.4692 27.2989C31.137 26.7074 32.8569 26.0842 34.2548 25.5485C34.9532 25.2809 35.578 25.0325 36.0787 24.8192C36.555 24.6163 36.9877 24.4168 37.2523 24.2469L36.1716 22.564C36.0693 22.6297 35.7877 22.7692 35.2948 22.9792C34.8263 23.1788 34.2271 23.4173 33.5392 23.681C32.1645 24.2077 30.4628 24.8245 28.8007 25.414C27.1398 26.003 25.524 26.563 24.323 26.9758C23.7226 27.1821 23.2262 27.3516 22.8799 27.4695C22.7068 27.5284 22.5713 27.5744 22.4791 27.6057C22.433 27.6213 22.3978 27.6332 22.3741 27.6413C22.3622 27.6453 22.3533 27.6483 22.3473 27.6503C22.3443 27.6513 22.3421 27.6521 22.3406 27.6526C22.3399 27.6528 22.3393 27.653 22.3389 27.6531C22.3388 27.6532 22.3386 27.6533 22.3385 27.6533C22.3385 27.6533 22.3384 27.6533 22.6585 28.6007ZM37.252 24.2471C37.6432 23.9961 38.0106 23.7141 38.2455 23.3898C38.3671 23.2218 38.5058 22.9711 38.5301 22.653C38.5573 22.2966 38.4317 21.9756 38.2214 21.7366C38.0347 21.5244 37.8088 21.4053 37.6375 21.3356C37.4583 21.2627 37.2693 21.2162 37.0907 21.1844C36.7341 21.121 36.3125 21.0987 35.8649 21.1007L35.8738 23.1007C36.2656 23.0989 36.5526 23.1201 36.7407 23.1536C36.8344 23.1702 36.8768 23.1854 36.8839 23.1882C36.8991 23.1944 36.8144 23.1652 36.7198 23.0577C36.6681 22.9989 36.6141 22.917 36.5772 22.8118C36.5398 22.7051 36.5285 22.5979 36.5359 22.5007C36.5499 22.3176 36.625 22.2176 36.6256 22.2167C36.6302 22.2104 36.6072 22.2424 36.5246 22.3115C36.4456 22.3775 36.3312 22.4616 36.1719 22.5638L37.252 24.2471ZM35.8693 22.1007C36.0955 23.0748 36.0953 23.0748 36.095 23.0749C36.095 23.0749 36.0947 23.075 36.0946 23.075C36.0943 23.0751 36.094 23.0751 36.0937 23.0752C36.0932 23.0753 36.0928 23.0754 36.0925 23.0755C36.0918 23.0756 36.0915 23.0757 36.0916 23.0757C36.0917 23.0757 36.0932 23.0753 36.0959 23.0747C36.1015 23.0735 36.1123 23.0713 36.1276 23.0683C36.1585 23.0624 36.2071 23.0537 36.2691 23.0448C36.3953 23.0266 36.566 23.0091 36.7489 23.009C37.1771 23.0087 37.4034 23.1026 37.4762 23.1746L38.8829 21.7529C38.2193 21.0963 37.2905 21.0087 36.7477 21.009C36.4451 21.0092 36.1763 21.0375 35.9843 21.0652C35.8873 21.0791 35.8072 21.0933 35.7491 21.1045C35.72 21.1101 35.6962 21.115 35.6784 21.1188C35.6695 21.1207 35.662 21.1224 35.6561 21.1237C35.6532 21.1243 35.6506 21.1249 35.6484 21.1254C35.6473 21.1256 35.6464 21.1259 35.6455 21.1261C35.645 21.1262 35.6446 21.1263 35.6442 21.1264C35.644 21.1264 35.6437 21.1265 35.6436 21.1265C35.6434 21.1266 35.6431 21.1266 35.8693 22.1007ZM37.4765 23.1749C37.259 22.96 37.1884 22.6476 37.2537 22.3857C37.2983 22.207 37.3861 22.1296 37.3555 22.1624C37.3079 22.2137 37.1472 22.346 36.8008 22.5519C36.1374 22.9461 35.06 23.4562 33.6441 24.0298C30.8268 25.1713 26.806 26.5101 22.4119 27.6318L22.9066 29.5696C27.3768 28.4285 31.4843 27.0628 34.3951 25.8835C35.8433 25.2967 37.0299 24.7423 37.8226 24.2712C38.2041 24.0444 38.5694 23.7938 38.8197 23.5248C38.9381 23.3976 39.1179 23.1757 39.1942 22.8698C39.2913 22.4808 39.1921 22.0586 38.8826 21.7526L37.4765 23.1749ZM22.6568 27.6007L22.6561 27.6007L22.661 29.6007L22.6616 29.6007L22.6568 27.6007Z" fill="#9AD7DC" mask="url(#path-54-inside-1_1412_5284)"/>
<path d="M85.4841 22.7373C85.0116 22.7731 84.5332 22.8179 84.0508 22.8707C85.0537 22.6912 86.1685 22.6147 87.2642 22.5995C86.7219 22.6425 86.13 22.6883 85.4841 22.7373ZM85.4841 22.7373L85.5218 23.2358L85.4841 22.7373Z" fill="#F7F6F4" stroke="#9AD7DC"/>
<path d="M132.718 28.6321C132.72 29.8401 132.006 30.8214 131.122 30.8235C129.924 30.8264 129.751 29.8473 129.748 28.6392C129.745 27.4312 129.743 26.4517 131.112 26.4484C131.996 26.4462 132.715 27.4241 132.718 28.6321Z" fill="white"/>
<path d="M129.515 28.1346C129.975 28.1576 131.195 27.9221 131.754 27.8165C132.314 27.7109 132.872 27.4141 133.152 27.4307C133.433 27.4473 134.045 27.6198 134.151 28.1234C134.258 28.6271 133.507 29.3068 132.598 29.3435C131.688 29.3802 130.376 29.5401 129.957 29.6453C129.537 29.7505 129.152 29.6127 129.081 29.178C129.009 28.744 128.851 28.101 129.515 28.1346V28.1346Z" fill="white"/>
<path d="M145.685 27.4607C145.688 28.4113 145.126 29.1823 144.431 29.184C143.489 29.1862 143.353 28.4162 143.35 27.4663C143.348 26.5165 143.346 25.7461 144.423 25.7435C145.118 25.7418 145.683 26.5109 145.685 27.4607Z" fill="white"/>
<path d="M143.167 27.0692C143.529 27.087 144.487 26.9018 144.928 26.8193C145.367 26.7361 145.807 26.5031 146.028 26.5156C146.248 26.5289 146.73 26.6644 146.813 27.0605C146.897 27.4565 146.307 27.9908 145.591 28.0202C144.876 28.0495 143.844 28.1749 143.514 28.2578C143.184 28.3408 142.881 28.2317 142.825 27.8902C142.77 27.5486 142.645 27.0436 143.167 27.0692V27.0692Z" fill="white"/>
<path d="M112.554 2.49112C112.554 2.49112 114.374 2.83396 114.584 2.79894C114.793 2.76392 115.873 0.606181 118.358 0.878393C120.843 1.1506 128.44 2.8001 133.03 5.60482C133.626 5.98582 134.573 7.06111 134.573 7.06111L135.274 7.26789C135.274 7.26789 134.711 6.07018 133.694 5.45549C132.678 4.8408 128.334 2.62709 126.514 2.04057C124.692 1.45405 119.02 -0.0620203 116.991 -0.0916504C114.962 -0.121281 113.283 0.264501 112.554 2.49112Z" fill="black"/>
<path d="M66.0232 4.38019C66.0232 4.38019 69.3616 3.70601 69.9972 3.60093C70.6224 3.49795 75.2692 2.76678 77.2138 2.51773C79.1494 2.27008 79.5801 2.20829 79.5801 2.20829C79.5801 2.20829 78.0861 1.7052 73.4676 1.75084C68.849 1.79647 67.2301 3.37703 66.0219 4.3802L66.0232 4.38019Z" fill="black"/>
<path d="M67.9345 33.2879C67.9345 33.2879 70.765 31.8211 71.6562 31.3502C72.5473 30.8787 75.9017 29.0461 81.0407 27.261C86.1798 25.476 92.9455 23.5834 94.5205 23.6839C96.0956 23.7843 95.2069 25.2982 94.9985 25.9241C94.7901 26.5501 92.0741 31.9783 90.1371 33.9124C88.2 35.8457 86.2314 37.6757 81.7079 37.9468C77.1837 38.2186 74.2452 38.4342 72.8808 38.3332C71.5157 38.2323 69.9915 37.2978 68.4144 36.0501C66.8366 34.8023 65.8901 33.9707 67.9352 33.2879L67.9345 33.2879Z" fill="white"/>
<path d="M13.5701 26.6621C13.5701 26.6621 12.1478 28.2194 12.1489 29.5372C12.15 30.855 12.3511 32.4429 12.4158 32.7292C12.4804 33.0156 9.77765 36.7435 9.46309 36.8485C9.14853 36.9535 8.67549 36.7621 8.72465 35.2419C8.77381 33.7224 8.2876 28.6332 13.5701 26.6621V26.6621Z" fill="white"/>
<path d="M45.0757 17.0059C44.5595 17.3896 44.11 17.7338 43.7549 18.0184C41.0831 20.162 40.0891 21.2357 40.0891 21.2357C46.8588 20.9875 65.6478 20.7807 72.6807 20.7638C73.9838 20.7607 75.7754 20.7674 77.8346 20.7797C86.8872 20.8359 101.13 21.0142 101.985 21.0405C103.034 21.0725 105.659 21.4486 106.669 19.222C107.476 17.4425 108.77 14.2198 109.542 12.3396C81.947 11.3947 58.0178 14.6899 45.0757 17.0053L45.0757 17.0059Z" fill="#606060"/>
<path d="M113.246 4.19226C109.504 3.80848 106.997 3.62952 104.163 3.56179C100.98 3.48592 97.3846 3.54911 91.1656 3.6193C79.4094 3.75184 71.0141 4.55417 68.8103 4.76795C66.6064 4.98173 62.9863 5.56409 62.9863 5.56409C62.4623 5.82629 58.6879 7.81587 56.5395 9.12434C54.6762 10.2589 48.4416 14.4999 45.075 17.0049C58.0171 14.6895 81.9463 11.3944 109.541 12.3392C109.735 11.8666 109.896 11.4782 110.008 11.2198C110.565 9.93241 113.245 4.19157 113.245 4.19157L113.246 4.19226Z" fill="black"/>
<path d="M125.335 5.71326C124.752 5.56693 124.211 5.44536 123.708 5.34717C124.347 6.64962 125.258 8.80948 126.106 11.9124C126.857 14.6608 127.713 18.599 128.386 21.8785C129.399 21.7987 130.221 21.7422 130.73 21.7196C130.767 21.7181 130.805 21.7166 130.845 21.7145C130.203 18.7401 129.345 15.2002 128.473 12.9139C127.639 10.7242 126.401 7.98112 125.335 5.71257L125.335 5.71326Z" fill="black"/>
<path d="M139.729 17.1963C139.029 15.6172 136.752 11.5512 135.491 9.32938C134.928 9.03046 134.256 8.72074 133.43 8.38379C133.439 8.39481 135.845 11.913 136.477 13.2652C137.11 14.6195 138.928 18.924 139.353 20.9966C139.387 21.1629 139.419 21.3272 139.449 21.49C140.152 21.4752 140.833 21.4604 141.469 21.4479C141.119 20.5382 140.424 18.7637 139.729 17.1963V17.1963Z" fill="black"/>
<path d="M113.739 20.1792L113.517 15.3834C113.517 15.3834 113.129 13.9244 112.955 14.4115C112.781 14.8985 111.636 18.8285 111.497 19.4542C111.358 20.08 111.127 20.6017 111.127 20.6017C111.127 20.6017 110.872 21.1235 110.872 21.4017C110.873 21.6799 110.702 23.6263 110.878 23.8695C111.054 24.1121 110.845 24.4605 111.824 24.4237C112.804 24.3868 113.362 24.0375 114.166 23.4447C114.725 23.1651 117.734 23.1579 118.994 23.2591C120.254 23.3603 121.793 23.3221 123.822 23.1778C125.851 23.0341 126.935 22.7181 127.377 22.2311C127.82 21.744 128.634 20.699 128.468 19.5404C128.301 18.3818 126.059 17.0203 124.308 16.6539C122.558 16.2874 119.361 15.7622 118.171 15.881C116.982 15.9998 115.467 16.5129 115.003 17.6958C114.54 18.8788 114.354 19.5509 114.379 20.1072L113.738 20.1785L113.739 20.1792Z" fill="black"/>
<path d="M124.309 16.6544C122.559 16.2879 119.361 15.7627 118.172 15.8815C116.982 16.0004 115.467 16.5135 115.004 17.6964C114.571 18.7992 114.382 19.4575 114.378 19.9925C115.153 20.0231 117.16 20.0617 121.657 19.9515C124.644 19.878 126.891 19.8457 128.488 19.8135C128.487 19.7238 128.48 19.6327 128.468 19.5416C128.301 18.3837 126.059 17.0216 124.308 16.6551L124.309 16.6544Z" fill="white"/>
<path d="M4.5121 61.9256C4.5121 61.9256 4.63982 63.0166 4.84995 63.1204C5.06008 63.2241 6.00535 63.5697 6.66683 62.0736C7.3283 60.5775 8.99919 57.202 9.38252 56.506C9.76585 55.8099 10.288 54.7663 12.0371 54.7268C13.7863 54.6881 26.9444 55.4903 31.5636 55.6877C36.1827 55.885 49.0251 56.5838 50.7049 56.615C52.3847 56.6454 55.7442 56.95 56.7591 57.087C57.7741 57.2234 59.5255 58.1228 60.6132 59.3371C61.701 60.5509 63.7706 62.8743 64.7532 64.0192C65.7359 65.1634 66.9642 66.7592 68.1898 67.2084C69.4154 67.6576 71.3401 67.7918 79.2808 67.0078C87.2216 66.2238 90.194 65.661 90.719 65.5202C91.2434 65.3802 91.8718 64.8921 92.0772 62.7364C92.2819 60.5808 92.7898 53.5943 95.294 47.3665C97.7982 41.1395 100.827 34.9456 105.761 35.1422C110.695 35.3388 112.811 42.0069 113.551 44.4033C114.291 46.7996 115.074 51.8722 115.046 54.8958C115.019 57.9194 114.679 62.1353 114.679 62.1353C114.679 62.1353 125.937 58.9355 130.868 57.7425C135.799 56.5489 142.618 54.8647 142.618 54.8647C142.618 54.8647 144.171 45.8938 145.038 42.6942C145.905 39.4946 147.154 35.1717 149.218 35.0328C151.282 34.8939 152.129 37.8512 152.412 38.9598C152.694 40.0685 154.429 48.2093 152.774 51.8767C152.774 51.8767 153.518 47.7828 152.702 43.0927C151.886 38.4026 150.066 38.1288 149.646 38.1651C149.226 38.2013 147.129 39.0402 145.883 44.8473C144.637 50.6544 143.605 58.0943 142.944 59.5559C142.944 59.5559 131.404 62.2248 127.977 63.2409C124.551 64.257 112.409 67.3174 112.409 67.3174C112.409 67.3174 112.474 66.8699 113.131 63.6011C113.788 60.3323 114.443 51.8523 111.98 45.8671C109.518 39.8818 106.83 39.8545 105.493 39.9398C104.157 40.0252 99.7623 42.9081 97.8204 50.072C95.8786 57.2365 94.4705 68.4657 94.4852 74.5653C94.4852 74.5653 68.908 74.5343 54.7699 73.4418C40.6319 72.3492 9.41149 68.2536 7.55591 67.9453C5.70102 67.6371 4.43274 67.6401 3.80385 66.2168C3.17496 64.7936 2.40269 63.8566 4.07746 61.8023C4.32162 61.6112 4.5121 61.9262 4.5121 61.9262L4.5121 61.9256Z" fill="black"/>
<path d="M15.483 56.9325L15.4116 56.9331C15.3462 56.9337 15.2504 56.9349 15.1304 56.9369C14.8902 56.9409 14.5542 56.9484 14.1719 56.9625C13.398 56.9908 12.469 57.0447 11.761 57.1434C11.6782 57.1549 11.5071 57.218 11.2484 57.4774C10.9935 57.7331 10.7204 58.1131 10.435 58.6105C9.86286 59.6076 9.34011 60.8962 8.83997 62.16C8.66968 62.5903 8.70569 62.8503 8.78124 63.0276C8.86891 63.2333 9.07839 63.4842 9.51514 63.753C10.4129 64.3056 11.8942 64.7086 13.6894 65.0155C17.2288 65.6205 37.6755 67.238 44.3421 67.5347C51.0077 67.8313 55.1043 67.7623 58.1283 67.2039L58.1285 67.2038C59.6518 66.9229 60.4429 66.5881 60.8323 66.3169C61.1444 66.0996 61.1377 65.9747 61.136 65.9435C61.1359 65.9417 61.1358 65.9402 61.1358 65.939C61.1355 65.8185 61.0505 65.4366 60.6263 64.6686C60.2242 63.9406 59.5844 62.9816 58.6507 61.7513C57.7517 60.5667 57.0669 59.9819 56.5358 59.666C56.0185 59.3584 55.5876 59.2671 55.0577 59.1682C54.8489 59.1292 53.7422 59.0256 52.0206 58.8887C50.3407 58.7551 48.1568 58.5953 45.8703 58.4398C41.2858 58.1279 36.33 57.8359 34.1896 57.8026L15.483 56.9325ZM15.483 56.9325C16.1087 56.9639 17.0782 57.016 18.2621 57.0796C22.8703 57.3272 30.7258 57.7493 34.1895 57.8026L15.483 56.9325Z" stroke="#9AD7DC" stroke-width="2" stroke-miterlimit="10"/>
</g>
<defs>
<clipPath id="clip0_1412_5284">
<rect width="156" height="87" fill="white"/>
</clipPath>
</defs>
</svg>
