<?xml version="1.0" encoding="UTF-8"?><svg id="Layer_1" xmlns="http://www.w3.org/2000/svg" viewBox="0 0 124 73.74"><defs><style>.cls-1{fill:#5bd1ba;}.cls-1,.cls-2,.cls-3,.cls-4,.cls-5{stroke-width:0px;}.cls-2{fill:#629495;}.cls-3{fill:#9ad7dc;}.cls-4{fill:#d7f4f4;}.cls-5{fill:#007570;}</style></defs><path class="cls-1" d="m63,0v29.54c7.95.26,15.15,3.42,20.6,8.45l21.4-20.45C94.14,6.92,79.35.28,63,0h0Z"/><path class="cls-3" d="m38.84,40c5.61-5.93,13.45-9.72,22.16-10.01V0C43.13.31,27.11,8.24,16,20.71l22.84,19.29h0Z"/><path class="cls-5" d="m106.77,19l-21.77,20.8c5.48,5.79,8.85,13.6,8.87,22.2h30.13c-.01-16.67-6.57-31.81-17.23-43Z"/><path class="cls-4" d="m14.31,22C5.39,32.83.01,46.78,0,62h29.62c.01-7.86,2.78-15.07,7.38-20.67L14.31,22Z"/><path class="cls-2" d="m63.98,73.74h-3.26v-3.42c-4.45-.61-6.56-3.84-6.85-6.56l3.97-.96c.19,2.02,1.54,3.87,4.48,3.87,2.08,0,3.3-.99,3.3-2.4,0-1.09-.8-1.92-2.4-2.27l-2.94-.64c-3.46-.77-5.6-2.94-5.6-6.02,0-3.39,2.62-5.89,6.05-6.43v-3.42h3.26v3.52c3.68.67,5.28,3.23,5.73,5.38l-3.94,1.12c-.19-1.12-1.02-2.98-3.65-2.98-2.05,0-3.17,1.18-3.17,2.5,0,.99.7,1.82,2.21,2.14l2.91.67c4.03.9,5.86,3.3,5.86,6.18s-2.11,5.66-5.95,6.27v3.46Z"/></svg>