<svg width="95" height="116" viewBox="0 0 95 116" fill="none" xmlns="http://www.w3.org/2000/svg">
<g clip-path="url(#clip0_1412_5074)">
<path d="M47.4995 112.86C56.0261 107.883 62.9042 103.197 68.4507 98.8944C82.9356 87.6579 91.4077 70.3086 91.4077 51.9293V21.104C70.2831 17.6507 47.4995 4.08545 47.4995 4.08545C47.4995 4.08545 24.7169 17.6518 3.59128 21.1051V51.9283C3.59128 70.3076 12.0634 87.6579 26.5482 98.8934C32.0947 103.196 38.9728 107.882 47.4995 112.859V112.86Z" fill="#9AD7DC"/>
<path d="M47.4837 112.851C56.0104 107.875 62.8884 103.189 68.435 98.8861C82.9198 87.6496 91.3919 70.3003 91.3919 51.921V21.0968C70.2674 17.6435 47.4837 4.07715 47.4837 4.07715V112.851Z" fill="#629495"/>
<path d="M48.7627 115.659C47.9825 116.113 47.0185 116.113 46.2373 115.659C38.0466 110.9 30.7328 106.044 24.4974 101.228C16.9147 95.3713 10.6751 87.7266 6.45171 79.1213C2.23143 70.5201 0 60.9079 0 51.3229V19.875C0 18.6434 0.892571 17.5935 2.10857 17.395C23.0178 13.9922 45.9895 0.486723 46.2194 0.35023C47.0091 -0.118045 47.992 -0.118045 48.7816 0.35023C49.0105 0.486723 71.9822 13.9922 92.8914 17.395C94.1074 17.5935 95 18.6434 95 19.875V51.3229C95 60.9068 92.7686 70.5191 88.5483 79.1202C84.3249 87.7256 78.0853 95.3702 70.5026 101.227C64.2672 106.043 56.9534 110.899 48.7627 115.658V115.659ZM7.01036 21.5791C5.85212 21.8279 5.02465 22.8505 5.02465 24.0349V51.3229C5.02465 69.1773 13.4526 86.347 27.5689 97.2507C32.9789 101.429 39.2395 105.648 46.211 109.812C47.0038 110.286 47.9951 110.286 48.7879 109.812C55.7594 105.648 62.02 101.429 67.4301 97.2517C81.5463 86.347 89.9743 69.1783 89.9743 51.324V24.0338C89.9743 22.8495 89.1468 21.8279 87.9886 21.578C71.3479 17.9988 54.8669 9.4858 48.7134 6.08923C47.9573 5.67135 47.0416 5.67135 46.2856 6.08923C40.1321 9.48685 23.651 17.9998 7.01036 21.578V21.5791Z" fill="#D7F4F4"/>
</g>
<path d="M32.6263 55.7128L43.751 67.1075L61.4141 48.8926" stroke="white" stroke-width="5" stroke-linecap="round" stroke-linejoin="round"/>
<defs>
<clipPath id="clip0_1412_5074">
<rect width="95" height="116" fill="white"/>
</clipPath>
</defs>
</svg>
